<?xml version="1.0" standalone="no"?>
<!DOCTYPE svg PUBLIC "-//W3C//DTD SVG 20010904//EN"
 "http://www.w3.org/TR/2001/REC-SVG-20010904/DTD/svg10.dtd">
<svg version="1.0" xmlns="http://www.w3.org/2000/svg"
 width="622.000000pt" height="622.000000pt" viewBox="0 0 622.000000 622.000000"
 preserveAspectRatio="xMidYMid meet">
<metadata>
Created by potrace 1.14, written by Peter Selinger 2001-2017
</metadata>
<g transform="translate(0.000000,622.000000) scale(0.100000,-0.100000)"
fill="#000000" stroke="none">
<path d="M2950 6191 c-47 -15 -85 -39 -125 -80 -21 -23 -46 -41 -55 -41 -31
-1 -97 -38 -137 -79 -23 -24 -57 -46 -79 -52 -43 -12 -88 -42 -121 -81 -15
-16 -46 -33 -81 -43 -44 -13 -68 -29 -107 -68 -27 -27 -61 -52 -74 -53 -50 -6
-104 -41 -147 -96 -12 -15 -34 -27 -58 -31 -46 -7 -111 -50 -132 -86 -11 -19
-32 -31 -75 -44 -43 -13 -72 -29 -106 -63 -31 -30 -65 -51 -96 -61 -32 -9 -65
-31 -99 -63 -28 -27 -67 -55 -87 -61 -51 -16 -101 -48 -133 -85 -18 -20 -42
-34 -66 -39 -43 -8 -97 -42 -141 -91 -17 -19 -41 -34 -52 -34 -33 0 -93 -36
-132 -79 -23 -26 -48 -43 -69 -46 -83 -15 -178 -112 -178 -184 0 -14 -6 -20
-22 -19 -44 1 -67 -14 -90 -61 l-23 -46 0 -665 c0 -529 3 -671 13 -696 11 -25
11 -41 2 -75 -16 -58 -16 -130 -1 -166 9 -23 9 -41 -2 -88 -9 -42 -10 -75 -4
-110 5 -27 8 -72 6 -100 -2 -54 -2 -134 2 -205 1 -25 -2 -70 -7 -100 -6 -34
-6 -68 -1 -90 11 -40 11 -79 2 -165 -5 -42 -2 -73 8 -103 13 -36 13 -48 2 -68
-7 -14 -13 -53 -13 -88 0 -76 35 -159 77 -180 18 -10 27 -23 29 -42 5 -64 94
-153 174 -175 22 -5 58 -28 81 -51 41 -39 108 -77 137 -78 8 0 35 -20 58 -44
46 -46 96 -76 137 -80 13 -1 47 -23 74 -49 48 -45 106 -77 141 -77 10 0 25
-11 34 -25 25 -38 92 -83 136 -90 29 -5 47 -17 70 -45 32 -39 118 -90 152 -90
10 0 37 -18 60 -41 41 -39 128 -89 156 -89 7 0 26 -15 43 -34 29 -34 119 -86
148 -86 8 0 29 -17 47 -38 34 -40 97 -77 150 -87 19 -4 42 -19 55 -36 27 -36
90 -74 136 -84 18 -3 42 -18 53 -32 31 -39 80 -72 125 -84 25 -7 60 -30 92
-60 64 -61 109 -81 174 -78 43 2 54 7 75 33 16 21 24 26 24 15 0 -25 32 -48
74 -52 57 -6 129 24 183 76 26 26 64 50 87 57 45 13 99 50 134 92 13 16 30 28
38 28 29 0 105 43 143 81 21 21 46 39 55 39 30 0 112 48 145 85 20 23 48 41
77 50 56 17 117 57 134 90 7 14 18 25 24 26 55 4 108 32 159 83 30 31 57 47
92 57 36 9 63 26 98 61 26 26 52 48 57 48 29 0 120 53 152 88 21 23 44 42 50
42 29 1 105 43 143 79 24 24 61 46 94 56 38 13 69 32 103 66 26 26 61 50 78
54 17 4 43 13 57 20 32 17 93 73 93 85 0 5 19 14 43 20 43 11 94 35 112 54 31
31 66 87 68 105 1 15 6 20 17 15 52 -24 102 13 127 93 15 48 15 62 4 121 -15
78 -16 100 -4 163 7 33 5 63 -5 104 -10 42 -11 67 -4 96 11 45 7 133 -8 173
-6 17 -6 34 -1 44 20 38 23 109 6 174 -12 50 -13 71 -5 94 14 36 11 131 -5
164 -8 16 -10 33 -4 48 16 42 17 126 3 181 -11 42 -12 57 -2 68 16 20 16 151
-1 190 -11 26 -11 42 -1 83 12 52 9 125 -8 169 -6 17 -5 39 4 66 13 45 10 110
-7 162 -7 23 -7 38 1 52 16 31 18 131 3 181 -11 35 -11 55 -2 92 12 50 8 110
-10 167 -7 24 -7 39 1 54 6 12 10 51 10 88 -1 83 -30 151 -74 172 -18 9 -26
17 -19 21 15 10 14 68 -1 98 -36 68 -104 122 -167 133 -28 5 -47 16 -68 43
-32 39 -108 83 -148 86 -14 0 -29 10 -35 21 -18 32 -110 95 -150 101 -25 4
-49 19 -74 44 -35 36 -107 77 -150 86 -10 2 -33 20 -49 40 -29 35 -114 83
-147 84 -8 0 -33 19 -55 41 -46 47 -103 79 -145 82 -17 1 -30 4 -30 7 0 3 -15
22 -32 42 -37 41 -101 78 -136 78 -14 0 -40 18 -70 49 -35 37 -61 54 -102 67
-37 11 -67 29 -90 54 -37 39 -101 77 -141 82 -13 2 -43 22 -67 45 -23 22 -68
51 -100 64 -31 12 -81 44 -110 71 -34 31 -71 53 -103 62 -32 10 -63 29 -87 53
-64 67 -99 78 -252 80 -74 1 -146 -2 -160 -6z"/>
</g>
</svg>
